<?xml version="1.0" encoding="UTF-8"?>
<svg id="_レイヤー_2" data-name="レイヤー 2" xmlns="http://www.w3.org/2000/svg" xmlns:xlink="http://www.w3.org/1999/xlink" viewBox="0 0 73.28 73.28">
  <defs>
    <style>
      .cls-1 {
        stroke-miterlimit: 10;
      }

      .cls-1, .cls-2 {
        fill: none;
      }

      .cls-1, .cls-2, .cls-3, .cls-4, .cls-5 {
        stroke: #000;
        stroke-linecap: round;
      }

      .cls-1, .cls-2, .cls-3, .cls-5 {
        stroke-width: .97px;
      }

      .cls-6, .cls-4, .cls-5 {
        fill: #fff;
      }

      .cls-2, .cls-3, .cls-4, .cls-5 {
        stroke-linejoin: round;
      }

      .cls-7 {
        fill: #a9aaab;
      }

      .cls-3, .cls-8 {
        fill: #f8ba66;
      }

      .cls-4 {
        stroke-width: .72px;
      }

      .cls-9 {
        clip-path: url(#clippath);
      }
    </style>
    <clipPath id="clippath">
      <circle class="cls-5" cx="36.64" cy="36.64" r="36.16"/>
    </clipPath>
  </defs>
  <g id="_レイヤー_1-2" data-name="レイヤー 1">
    <g>
      <circle class="cls-6" cx="36.64" cy="36.64" r="36.16"/>
      <g class="cls-9">
        <g>
          <path class="cls-5" d="M19.28,74c1.01,8.18,3.41,19.14-3.9,18.24-2.78-.35-4.69-5.63-5.55-15.24-1.41-15.63-.79-19.35,1.97-19.85,7.01-1.26,6.47,8.68,7.48,16.86Z"/>
          <path class="cls-6" d="M55.94,101.86c-.36-3.71-.56-7.26-.41-10.03.12-2.34-1.8-18.24-1.9-20.42l2.76-15.58.69.24c2.96,1.01,4.96,3.77,4.96,6.9,0,2.48.04,5.52.21,8.38.28,4.83.39,10,.78,13.69.34,3.14.92,7.29,1.01,7.9.3,2.29.47,5.49.55,8.94h-8.65Z"/>
          <path class="cls-2" d="M56.05,102.1c.12-2.34-2.33-28.51-2.42-30.69l2.76-15.58.69.24c2.96,1.01,4.96,3.77,4.96,6.9,0,2.48.04,5.52.21,8.38.28,4.83.39,10,.78,13.69.34,3.14,1.76,15.18,1.6,16.76"/>
          <g>
            <path class="cls-7" d="M17.23,80.38l1.36,13.94-.83,7.55h38.51l-.78-7.98.97-13.95c.99-1,2.99-3.87,6.1-10.62,3.46-7.53,3.86-8.52,3.86-8.52-1.1-3.5-7.8-6.06-7.8-6.06,0,0-3.25-2.19-6.64-3.51-3.53-1.37-7.21-1.88-7.72-1.98-1.77-.33-13.75-.59-15.51-.1-.43.12-3.87.9-6.95,2.12-3.96,1.57-7.71,3.65-7.71,3.65,0,0-6.63,3.17-8.63,6.25,0,0,2.5,5.58,5.36,10.26,3.02,4.93,6.42,8.95,6.42,8.95Z"/>
            <path class="cls-1" d="M56.52,102.02l-1.02-8.14.97-13.95c.99-1,2.99-3.87,6.1-10.62,3.46-7.53,3.86-8.52,3.86-8.52-1.1-3.5-7.8-6.06-7.8-6.06,0,0-3.25-2.19-6.64-3.51-3.53-1.37-7.21-1.88-7.72-1.98-1.77-.33-13.75-.59-15.51-.1-.43.12-3.87.9-6.95,2.12-3.96,1.57-7.71,3.65-7.71,3.65,0,0-6.63,3.17-8.63,6.25,0,0,2.5,5.58,5.36,10.26,3.02,4.93,6.42,8.95,6.42,8.95l1.36,13.94-.46,7.27"/>
            <path class="cls-2" d="M57.04,73.09s.29,4.97-.74,7.08"/>
            <path class="cls-5" d="M50.13,54.14c.01,2.54-8.71,6.08-13.97,6.1-5.26.02-13.55-3.21-13.56-5.76-.01-2.54,8.32-4.51,13.58-4.53,5.26-.02,13.94,1.65,13.95,4.19Z"/>
            <g>
              <path class="cls-6" d="M30.78,39.36c-.06,3.65-.44,8.5-1.74,12.74l14.62-.06c-1.27-4.02-1.72-8.98-1.86-12.73l-11.02.05Z"/>
              <path class="cls-2" d="M30.74,41.04c-.16,3.73-.63,7.47-1.69,11.06"/>
              <path class="cls-2" d="M43.66,52.04c-1.02-3.34-1.66-7.76-1.89-11.25"/>
            </g>
            <polyline class="cls-2" points="25.56 53.94 33.03 53.91 34.1 54.54"/>
            <polyline class="cls-2" points="46.38 53.86 38.92 53.89 37.85 54.53"/>
          </g>
          <g>
            <path class="cls-8" d="M26.81,35.4l-4-17.82s-3.43,6.59-3.37,16.21c.03,4.93,2.67,10.64,3.63,16.71.23,1.48-1.73,4.56-4.25,5.65,0,0,.5,1.51,2.88.65,0,0,3.26.43,5.8-2.82,3.49-3.52,4.67-12.57-.69-18.59Z"/>
            <path class="cls-3" d="M45.8,32.32l1.83-19.08s5.34,5.63,5.05,17.36c-.12,4.93-.72,9.59-1.59,15.67-.21,1.48,1.07,6.12,2.82,7.35,0,0,.28.81-2.11-.01l-.16,1.01s-4.12-.49-6.71-3.7c-3.55-3.46-4.41-12.49.85-18.6Z"/>
            <g>
              <path class="cls-5" d="M46.21,30.61c-.63,1.95-1.97,5.33-.1,5.93,1.87.61,3.86-.13,5.57-3.9.85-1.86.04-4.35-1.83-4.95-1.87-.61-3.01.98-3.65,2.93Z"/>
              <circle class="cls-4" cx="48.02" cy="36.19" r="1.17"/>
              <path class="cls-2" d="M50.7,30.3s-.81-1-1.2-.8-.83,2.11-.83,2.11l.87,1.12-.78.61s-.47.7.06,1.04"/>
              <path class="cls-6" d="M48.61,22.74c.39,10.7-3.64,23.41-12.28,23.34-8.76-.07-12.88-12.21-12.51-23.83.31-9.58,6.29-14.39,12.82-14.22,6.45.17,11.63,5.45,11.97,14.7Z"/>
              <path class="cls-2" d="M48.4,28.51c-.97,9.02-4.96,17.63-12.07,17.57-7.19-.06-11.26-8.25-12.28-17.61"/>
              <ellipse cx="41.75" cy="30.26" rx="1.13" ry="1.35" transform="translate(-.62 .88) rotate(-1.2)"/>
              <ellipse cx="30.74" cy="30.49" rx="1.13" ry="1.35" transform="translate(-.63 .65) rotate(-1.2)"/>
              <path class="cls-2" d="M28.04,27.98s2.31-1.76,4.56-.2"/>
              <path class="cls-2" d="M44.52,27.85s-2.34-1.72-4.57-.13"/>
              <line class="cls-2" x1="36.43" y1="34.99" x2="36.43" y2="35.67"/>
              <path class="cls-4" d="M33.73,39.11c.71,1.7,1.67,2.72,2.55,2.69,1.62-.06,2.7-2.73,2.7-2.73l-5.24.04Z"/>
            </g>
            <g>
              <path class="cls-8" d="M42.09,8.2c8.29,3.38,8.17,13.51,7.3,17.87-.26,1.29-.83,2.03-.83,2.03-3.26-3.48-4.85-6.76-7.96-13.79-1.11,4.61-6.98,10.6-16.92,13.23,0,0-5.43-9.91,5.64-18.48,3.53-2.74,8.63-2.55,12.77-.86Z"/>
              <path class="cls-2" d="M48.45,19.65s1.28,1.79,1.53,5.47"/>
              <path class="cls-2" d="M40.88,13.96s-2.52,10.51-17.52,13.64"/>
              <path class="cls-2" d="M32.1,18.36s-2.09,4.42-7.49,5.32"/>
              <path class="cls-2" d="M37.78,7.15c1.47.13,2.93.48,4.31,1.05,2.69,1.1,5.87,4.91,6.97,7.03"/>
              <path class="cls-2" d="M25.17,13.42c.97-1.91,1.92-3.01,4.16-4.37,1.93-1.17,4.1-1.81,6.32-1.94"/>
            </g>
            <path class="cls-2" d="M22.01,29.62s-1.51,7.65,4.3,17.02"/>
            <path class="cls-2" d="M25.65,12.5s-9.8,14.21-3.81,32.56c1.08,3.32,3.46,7.26-2.9,11.1"/>
            <path class="cls-2" d="M30.25,43.8s.66,8.43-4.95,12.44"/>
            <path class="cls-2" d="M24.77,53.96s-.21.9-3.06,3.01"/>
            <path class="cls-2" d="M40.61,14.8s3.38,7.94,7.86,12.8"/>
            <path class="cls-2" d="M47.52,44.3s.14,6.88,3.49,8.27"/>
          </g>
          <g>
            <path class="cls-6" d="M26.22,60.39s-13.75,18.43-14.59,23.06c0,0-1.77,5.56,2.44,8.38,3.7,2.48,7.34-2.52,9.02-5.04s8.21-22.76,8.21-22.76l-5.09-3.64Z"/>
            <path class="cls-2" d="M10.77,83.8s.67,5.14,3.07,7.56c3.14,3.16,7.58-2.04,9.26-4.57s8.21-22.76,8.21-22.76l-4.99-3.57s-9.27,12.22-13.09,19.25"/>
            <g>
              <path class="cls-6" d="M37.35,45.45l-1.78-1.77-3.25-.32c-1.75-.28-5.12,3.66-5.22,3.79-1.21.83-1.28,1.95-1.28,1.95,0,0,1.14,6.51,1.42,8.17l.18,1.42-1.32,3.13,4.25,3.43,3.16-5.64c2.32-2.85.1-9.49.1-9.49.82.02,1.62-.28,1.62-.28l.14,1.07-.45.64c-.33,1.97,1.15,1.57,1.15,1.57.39-.68,1.01-2.63,1.01-2.63l-.19-1.53c-.06-1.35-1.09-2.07-1.15-2.13-.09-.52-.3-.87-.3-.87-.28-.49-.41-.45-.48-.54,1.93,1.31,2.4.03,2.4.03Z"/>
              <path class="cls-2" d="M31.07,64.9l2.47-4.93c2.32-2.85.11-9.68.11-9.68.72-.04,1.57-.44,1.57-.44l.07,1.07-.35,1c-.33,1.97,1.15,1.57,1.15,1.57.39-.68,1.01-2.63,1.01-2.63l-.19-1.53c-.06-1.35-1.09-2.07-1.15-2.13-.09-.52-.3-.87-.3-.87-.28-.49-.42-.69-.49-.78,1.93,1.31,2.36-.26,2.36-.26l-1.76-1.6-3.25-.32c-1.75-.28-5.23,3.79-5.34,3.92-1.21.83-1.14,2.17-1.14,2.17,0,0,1.28,7.58,1.56,9.24l-1.6,2.46"/>
              <path class="cls-2" d="M32.43,48.29s2.73-1.14,3.84-.66"/>
              <path class="cls-2" d="M29.67,46.51s2.47-1.81,5.3-.98"/>
              <path class="cls-2" d="M31.14,47.17s2.26-1.21,4.26-.89"/>
            </g>
          </g>
        </g>
      </g>
      <circle class="cls-2" cx="36.64" cy="36.64" r="36.16"/>
    </g>
  </g>
</svg>