<?xml version="1.0" encoding="UTF-8"?>
<svg id="_レイヤー_2" data-name="レイヤー 2" xmlns="http://www.w3.org/2000/svg" xmlns:xlink="http://www.w3.org/1999/xlink" viewBox="0 0 73.28 73.28">
  <defs>
    <style>
      .cls-1, .cls-2, .cls-3, .cls-4 {
        fill: #fff;
      }

      .cls-5, .cls-6 {
        fill: none;
      }

      .cls-5, .cls-6, .cls-7, .cls-2, .cls-3, .cls-4, .cls-8 {
        stroke: #000;
        stroke-linecap: round;
        stroke-linejoin: round;
      }

      .cls-5, .cls-4 {
        stroke-width: .99px;
      }

      .cls-6, .cls-7, .cls-3, .cls-8 {
        stroke-width: .97px;
      }

      .cls-7, .cls-9 {
        fill: #f8ba66;
      }

      .cls-2 {
        stroke-width: .72px;
      }

      .cls-8 {
        fill: #fdd77d;
      }

      .cls-10 {
        clip-path: url(#clippath);
      }
    </style>
    <clipPath id="clippath">
      <circle class="cls-3" cx="36.64" cy="36.64" r="36.16"/>
    </clipPath>
  </defs>
  <g id="_レイヤー_1-2" data-name="レイヤー 1">
    <g>
      <circle class="cls-1" cx="36.64" cy="36.64" r="36.16"/>
      <g class="cls-10">
        <g>
          <path class="cls-9" d="M15.57,93.77l-.49,12.04H3.22c.22-2.37.45-4.86.71-7.59,2.11-21.92,2.04-31.27,2.04-31.27.56-8.53,9.78-10.53,9.78-10.53l-.09,24.7-.09,12.66Z"/>
          <path class="cls-6" d="M15.31,104.38l.26-10.62.09-12.66.09-24.7s-9.22,1.99-9.78,10.53l-2.71,38.16"/>
          <g>
            <path class="cls-1" d="M57.3,105.8l-.86-47.31s-12.63-5.17-13.54-5.43c-1.63-.46-12.67-.17-14.3.15-.92.18-13.21,5.27-13.21,5.27l-.79,47.31h42.69Z"/>
            <path class="cls-3" d="M46,55.09c0-1.5-1.59-2.48-4.01-3.34l-.37-11.01h-12.22l-.28,11.02c-2.42.86-4,1.84-4,3.33,0,2.31,4.97,7.66,10.54,7.79s10.33-5.55,10.33-7.79Z"/>
            <path class="cls-9" d="M12.77,105.24c0,.19-.02.37-.02.56h15.47c.48-10.43-.16-21.67-1.69-32.19-2.81-19.31,1.93-21.58,1.93-21.58-9.12,1.53-14.37,4.69-14.37,4.69-2.85,3-.87,29.42-1.32,48.53Z"/>
            <path class="cls-6" d="M28.25,105.67c.47-10.39-.19-21.58-1.71-32.06-2.81-19.31,1.93-21.58,1.93-21.58-9.12,1.53-14.37,4.69-14.37,4.69-2.85,3-.87,29.42-1.32,48.53"/>
            <path class="cls-9" d="M44.05,105.8h15.44c0-.19-.02-.37-.02-.56-.46-19.11,1.69-45.49-1.16-48.5,0,0-5.1-2.92-14.23-4.46,0,0,1.89,11.25,1.43,17.03-.96,12.2-1.8,25.06-1.46,36.48Z"/>
            <path class="cls-6" d="M59.47,105.24c-.45-19.11,1.69-45.49-1.16-48.5,0,0-5.1-2.92-14.23-4.46,0,0,1.89,11.25,1.43,17.03-.96,12.16-1.8,24.98-1.47,36.36"/>
            <path class="cls-7" d="M24.74,54.22l-4,4.87,2.26,2.61-3.5,2.36s3.07,10.79,5.16,17.11c2.09,6.32,3.54,10.15,3.54,10.15,0,0-2.39-30.82-1.4-34.22.98-3.4,2.09-6.05,2.09-6.05,0,0-1.32.76-4.16,3.18Z"/>
            <path class="cls-7" d="M46.69,54.22l4,4.87-2.26,2.61,3.5,2.36s-3.07,10.79-5.16,17.11c-2.09,6.32-2.69,10.33-2.69,10.33,0,0,1.05-31.46.06-34.86-.98-3.4-1.36-6-1.36-6,0,0,1.32.6,3.91,3.58Z"/>
          </g>
          <g>
            <g>
              <g>
                <path class="cls-4" d="M24.76,33.89c.32,2.12,1.11,5.84-.84,6.13-1.95.29-3.81-.82-4.92-5.01-.55-2.07.65-4.49,2.6-4.78,1.95-.29,2.84,1.54,3.16,3.66Z"/>
                <path class="cls-6" d="M20.34,33.27s.85-1.05,1.25-.84.87,2.21.87,2.21l-.91,1.18.82.64s.49.73-.07,1.09"/>
              </g>
              <g>
                <path class="cls-4" d="M46.47,33.89c-.32,2.12-1.11,5.84.84,6.13,1.95.29,3.81-.82,4.92-5.01.55-2.07-.65-4.49-2.6-4.78-1.95-.29-2.84,1.54-3.16,3.66Z"/>
                <path class="cls-6" d="M50.89,33.27s-.85-1.05-1.25-.84-.87,2.21-.87,2.21l.91,1.18-.82.64s-.49.73.07,1.09"/>
              </g>
              <path class="cls-1" d="M48.74,26.27c0,6.42-1.46,13.23-3.85,17.96-1.93,3.83-4.31,6.06-8.98,6.14-4.93.08-7.73-2.62-9.76-6.54-2.55-4.91-3.57-11.55-3.66-17.12-.17-10.01,5.39-17.16,12.64-17.29,7.25-.12,13.61,6.83,13.62,16.84Z"/>
              <path class="cls-5" d="M34.97,50.38c-4.11-.39-6.97-2.99-8.82-6.54-2.55-4.91-3.57-11.55-3.66-17.12-.17-10.01,5.39-17.16,12.64-17.29,7.25-.12,13.61,6.83,13.62,16.84,0,6.42-1.46,13.23-3.85,17.96-1.77,3.51-4.23,5.78-8.18,6.17"/>
              <ellipse cx="41.43" cy="32.35" rx="1.18" ry="1.29" transform="translate(-.45 .58) rotate(-.8)"/>
              <ellipse cx="30.31" cy="32.51" rx="1.18" ry="1.29" transform="translate(-.45 .43) rotate(-.8)"/>
              <path class="cls-6" d="M32.59,29.19s-2.47-1.42-5.3.27"/>
              <path class="cls-6" d="M39.26,29.19s2.47-1.42,5.3.27"/>
              <g>
                <path class="cls-6" d="M29.93,36.2c1.59-.03,3.97-.59,3.95-1.21l.33-3.33c-.01-.62-2.12-1.46-4.58-1.39-2.46.07-4.48.96-4.47,1.58l.57,3.31c.01.62,2.61,1.07,4.2,1.04Z"/>
                <path class="cls-6" d="M42.07,36c-1.59.02-3.98-.45-3.99-1.07l-.44-3.32c0-.62,2.07-1.53,4.53-1.55,2.47-.02,4.51.81,4.52,1.43l-.46,3.33c0,.62-2.57,1.16-4.16,1.18Z"/>
                <line class="cls-6" x1="49.47" y1="29.72" x2="46.97" y2="30.71"/>
                <line class="cls-6" x1="22.32" y1="30.22" x2="24.82" y2="31.18"/>
                <path class="cls-6" d="M34.5,31.86s1.54-.77,2.82-.01"/>
                <path d="M25.71,31.87c-.05.72.22,1.28-.22,1.25s-1.25-.68-1.21-1.41c.05-.72.93-1.24,1.37-1.21.44.03.1.64.06,1.36Z"/>
                <path d="M46.04,31.44c.08.72-.16,1.29.27,1.24.44-.05,1.22-.73,1.15-1.45-.08-.72-.98-1.2-1.42-1.15-.44.05-.07.64,0,1.36Z"/>
              </g>
              <line class="cls-6" x1="35.95" y1="38.88" x2="35.97" y2="39.99"/>
              <path class="cls-2" d="M33.3,43.18s2.51,6.09,5.6-.04l-5.6.04Z"/>
            </g>
            <g>
              <path class="cls-8" d="M21.1,21.37c-.05-3.2,3.3-8.19,5.38-8.22,1.18-1.79,4.58-4.33,6.67-4.89.78-.21,4.19-1.64,4.19-1.64,0,0,.12,1.41.32,2.13.06.2,1.96-1.04,2.36-1.12.58-.12.3,2.18.74,1.87.6-.43,2.17-.93,2.17-.93,0,0,.36,1.04.67,1.68.65,1.37,2.61,2.05,3.61,3.38,2.37,3.16,3.01,4.68,3.04,6.93.08,4.66-.01,8.03-1.49,9.69-.17.19.33-.72-1.21-4.96-.49-1.09-1.42-4.84-2.08-5.59-3.11-3.53-8.75-3.78-12.14-3.54-3.09.22-6.28,2.4-7.8,4.04-.63.76-1.14,4.77-1.57,6.1-.9,2.75-.92,4.81-1.02,4.71-1.53-1.61-1.75-4.98-1.83-9.64Z"/>
              <path class="cls-6" d="M30.85,13.08s-1.55,1.2-1.7,3.9"/>
              <path class="cls-6" d="M37.48,11.21s-2.24,2.19-2.39,4.9"/>
              <path class="cls-6" d="M42.3,13.62s-1.78.85-2.21,2.76"/>
              <path class="cls-6" d="M50.2,21.59s-.58,1.35-2.14,1.66"/>
              <path class="cls-6" d="M21.15,23.14s.58.62,1.94.54"/>
              <path class="cls-6" d="M49.75,18.26s-.35,1.4-2.33,1.75"/>
              <path class="cls-6" d="M21.35,19.69s-.2.71,2.12.99"/>
            </g>
          </g>
          <path class="cls-7" d="M57.56,56.6c2.16.49,4.66,2.09,6.02,5.07,1.43,3.13.86,8.69,1.15,14.83.62,13.33-.33,20.59-5.58,22.56-1,.38-3.66-.76-4.73-1.18,0,0-.93-27.63-.58-31.38.65-7.1,3.72-9.89,3.72-9.89Z"/>
          <g>
            <path class="cls-7" d="M41.02,62.73c-2.88,2.09-4.49,5.04-3.41,6.52,1.07,1.48,4.42.94,7.3-1.15,2.88-2.09,4.35-4.98,3.28-6.47s-4.28-1-7.17,1.09Z"/>
            <g>
              <path class="cls-3" d="M31.82,60.18l-1.92-2.74c-.23-1.15.6-1.52.88-1.61l-.27-.22c-.28-1.37.97-1.64.97-1.64l.41.27-1.63-.95c-.22-1.1.67-1.75.98-1.87l-2.99-2.18c-1.53-2.24,1.06-1.68,1.06-1.68l5.76,3.35,4.44,2.28c.28-1.72.07-3.2.07-3.2.19-1.3.68-2.5,1.11-2.96,1.04-1.09,2.31.14,2.31.14-1.27,2.63-.27,5.76-.27,5.76,0,0,.74,1.36,1.82,3.07,1.08,1.71,1.09,5.62,1.09,5.62l3.25,3.34s.14,1.52-2.39,3.21c-2.53,1.69-3.82,2.28-3.82,2.28,0,0-1.29-2.74-2.38-3.5-1.26-.89-3.92-1.92-5.02-2.9-2.06-1.81-3.44-3.85-3.44-3.85Z"/>
              <path class="cls-6" d="M31.24,51.42s3.14,2.23,4.58,2.64"/>
              <line class="cls-6" x1="31.91" y1="54.31" x2="34.01" y2="55.82"/>
              <line class="cls-6" x1="30.96" y1="56" x2="32.57" y2="57.69"/>
            </g>
            <path class="cls-9" d="M48,61.33s14.43,22.65,15.44,27.38c0,0,2.5,7.4-3.2,10.12-2.88,1.37-6.11-.77-8.22-3.16-5.16-5.85-10.13-15.83-14.44-26.45,0,0,3.48.37,5.97-1.55,4.08-3.14,4.44-6.33,4.44-6.33Z"/>
            <path class="cls-6" d="M64.33,90.86s-.02,4.42-4.09,7.96c-2.41,2.09-6.11-.77-8.22-3.16-5.16-5.85-10.13-15.83-14.44-26.45,0,0,3.48.25,5.97-1.67,4.08-3.14,4.44-6.22,4.44-6.22,0,0,9.05,14.57,13.56,22.94"/>
          </g>
        </g>
      </g>
      <circle class="cls-6" cx="36.64" cy="36.64" r="36.16"/>
    </g>
  </g>
</svg>