<?xml version="1.0" encoding="UTF-8"?>
<svg id="_レイヤー_2" data-name="レイヤー 2" xmlns="http://www.w3.org/2000/svg" xmlns:xlink="http://www.w3.org/1999/xlink" viewBox="0 0 73.28 73.28">
  <defs>
    <style>
      .cls-1 {
        fill: #a9aaab;
      }

      .cls-1, .cls-2, .cls-3, .cls-4, .cls-5, .cls-6, .cls-7, .cls-8, .cls-9 {
        stroke: #000;
        stroke-linecap: round;
        stroke-linejoin: round;
      }

      .cls-1, .cls-3, .cls-5, .cls-8 {
        stroke-width: .97px;
      }

      .cls-10, .cls-6, .cls-7, .cls-8 {
        fill: #fff;
      }

      .cls-2, .cls-3, .cls-4 {
        fill: none;
      }

      .cls-2, .cls-6 {
        stroke-width: .72px;
      }

      .cls-4, .cls-7 {
        stroke-width: .96px;
      }

      .cls-5, .cls-11 {
        fill: #f8ba66;
      }

      .cls-9 {
        fill: #fdd77d;
        stroke-width: .92px;
      }

      .cls-12 {
        clip-path: url(#clippath);
      }
    </style>
    <clipPath id="clippath">
      <circle class="cls-8" cx="36.64" cy="36.64" r="36.16"/>
    </clipPath>
  </defs>
  <g id="_レイヤー_1-2" data-name="レイヤー 1">
    <g>
      <circle class="cls-10" cx="36.64" cy="36.64" r="36.16"/>
      <g class="cls-12">
        <g>
          <g>
            <path class="cls-11" d="M1.83,106.79c.03-.78,1.84-36.57,1.84-36.57.12-1.94-.32-3.77.36-4.98,2.19-3.86,6.14-5.11,6.14-5.11l4.07,27.72.58,15.04-.44,3.91H1.83Z"/>
            <path class="cls-3" d="M14.82,102.89l-.58-15.04-4.07-27.72s-3.84,1-5.78,4.42c-.82,1.45-.56,3.07-.72,5.66,0,0-.88,13.64-1.74,36.16"/>
          </g>
          <g>
            <path class="cls-10" d="M37.91,98.55c9.62-17.84,11.81-35.92,12.04-43.85h-26.51c.23,7.93,2.42,26.01,12.04,43.85h2.43Z"/>
            <polygon class="cls-9" points="41 101.93 40.02 75.17 38.08 63.86 35.24 63.86 33.28 75.17 32.29 101.93 41 101.93"/>
            <path class="cls-9" d="M32.16,60.28c-.02-1.89,2.76-2.41,4.56-2.43,1.79-.02,4.31.44,4.33,2.33.01.87-.76,2.19-1.46,3.36-.4.67-1.74,2.25-1.74,2.25h-2.41s-1.26-1.53-1.64-2.17c-.7-1.15-1.63-2.46-1.64-3.34Z"/>
            <path class="cls-11" d="M13.8,106.79h46.28l-.35-5.25,4.19-41.49s-18.15-7.39-18.22-6.19c-.32,5.11,3.27,18.63-8.76,42.07-11.99-24.13-8.44-36.96-8.76-42.07-.08-1.2-18.22,6.19-18.22,6.19l4.19,41.49-.35,5.25Z"/>
            <path class="cls-3" d="M60.06,106.56l-.33-5.02,4.19-41.49s-18.15-7.39-18.22-6.19c-.32,5.11,2.95,19.6-9.07,43.04-11.99-24.13-8.13-37.93-8.45-43.04-.08-1.2-18.22,6.19-18.22,6.19l4.19,41.49-.35,5.25"/>
            <polygon class="cls-8" points="43.82 57.63 36.76 57.66 29.48 57.63 29.48 44.69 43.82 44.69 43.82 57.63"/>
            <path class="cls-8" d="M28.02,51.89c-.07-.18,1.36-2.74,1.33-2.46-.25,2.32,1.76,4.63,7.37,8.37.41.27-3.08,1.58-4.93,4.27-1.69,2.45-3.99,4.76-3.99,4.76-3.02-7.74.22-14.94.22-14.94Z"/>
            <path class="cls-8" d="M45.13,51.89c.07-.18-1.36-2.74-1.33-2.46.25,2.32-1.76,4.63-7.37,8.37-.41.27,3.08,1.58,4.93,4.27,1.69,2.45,3.99,4.76,3.99,4.76,3.02-7.74-.22-14.94-.22-14.94Z"/>
            <path class="cls-5" d="M20.05,56.67l1.84,3.35-3.24,2.05s5.89,16.28,9.82,22.86c3.93,6.58,8.26,12.15,8.26,12.15,0,0-12.35-30.1-9.35-41.87l1.21-3.92-8.53,5.39Z"/>
            <path class="cls-5" d="M53.4,56.67l-1.84,3.35,3.24,2.05s-5.89,16.28-9.82,22.86-8.26,12.15-8.26,12.15c0,0,12.35-30.1,9.35-41.87l-1.16-4.02,8.48,5.49Z"/>
          </g>
          <g>
            <g>
              <g>
                <path class="cls-7" d="M47.84,34.04c-.35,2.08-1.19,5.74.74,6.05,1.93.32,3.79-.75,4.94-4.87.57-2.03-.58-4.43-2.51-4.75-1.93-.32-2.83,1.48-3.18,3.56Z"/>
                <path class="cls-4" d="M52.23,33.5s-.83-1.05-1.23-.85-.89,2.16-.89,2.16l.88,1.17-.82.61s-.5.72.05,1.08"/>
              </g>
              <g>
                <path class="cls-7" d="M24.92,33.88c.32,2.09,1.11,5.75-.83,6.04-1.93.29-3.77-.81-4.87-4.93-.54-2.04.64-4.42,2.57-4.72,1.93-.29,2.81,1.52,3.13,3.61Z"/>
                <path class="cls-4" d="M20.55,33.28s.84-1.04,1.24-.83.86,2.18.86,2.18l-.9,1.16.81.63s.49.72-.06,1.08"/>
              </g>
              <path class="cls-10" d="M22.61,27.12c.27,12.03,3.72,24.3,13.76,24.85,11.5.63,13.51-14.65,13.45-25.02s-6.15-16.96-13.66-16.91c-7.51.05-13.78,6.72-13.55,17.09Z"/>
              <path class="cls-3" d="M49.57,33.21s-.71,18.43-12.24,18.52"/>
              <path class="cls-3" d="M23.39,33.38s1,18.69,12.2,18.37"/>
              <ellipse cx="30.5" cy="33.88" rx="1.16" ry="1.27" transform="translate(-.21 .19) rotate(-.36)"/>
              <ellipse cx="41.89" cy="33.81" rx="1.16" ry="1.27" transform="translate(-.21 .26) rotate(-.36)"/>
              <path class="cls-3" d="M40,30.36s2.49-2.15,5.34.2"/>
              <path class="cls-3" d="M32.29,30.4s-2.17-1.65-5.08.26"/>
              <line class="cls-3" x1="36.27" y1="39.71" x2="36.27" y2="40.44"/>
              <path class="cls-2" d="M41.05,41.92s1.09.39.86,1.45"/>
              <path class="cls-6" d="M39.31,43.81c-.65,1.4-1.69,3.05-3.07,3.12-1.8.08-3.07-3.1-3.07-3.1l6.13-.02Z"/>
            </g>
            <g>
              <path class="cls-1" d="M51.79,21.48c-.02-3.31-1.15-5.11-2.61-6.91-2.47-3.04-4.4-2.68-6.55-2.67-.8-1.15-1.81-1.99-2.97-2.56-2.65-1.3-6.08-1.19-9.52-.18-3.44,1-4.51,2.7-6.11,4.94-2.38,3.33-3.23,4.7-3.22,7.02.03,4.83.44,8.55,2.01,10.23.18.19.56-2.81,1.46-7.65,2.79-6.57,10.86-8.04,15.3-7.2,3.16.6,6.2,2.68,7.69,5.28.42,4.41,2.17,9.9,2.32,9.73,1.54-1.71,2.24-5.2,2.21-10.04Z"/>
              <path class="cls-3" d="M20.81,21.95s-.31,1.43,2.09,1.75"/>
              <path class="cls-3" d="M51.79,22.26s-.16,1.32-2.56,1.66"/>
              <path class="cls-3" d="M21.21,18.71s.34,1.69,2.74,2.01"/>
              <path class="cls-3" d="M51.52,19.01s-.35,1.47-2.75,1.81"/>
              <path class="cls-3" d="M42.65,11.87s-1.25,1.81-1.29,4.62"/>
              <path class="cls-3" d="M41.72,14.03s2.63-.41,4.43,1.19"/>
              <path class="cls-3" d="M35.01,13.89s3.04-1.65,6.1,1.06"/>
              <path class="cls-3" d="M37.24,10.83s2.76-.41,4.6,2.12"/>
            </g>
          </g>
          <g>
            <path class="cls-5" d="M59.73,57.65c4.43.9,6.29,4.71,6.25,11.98,0,1.06.12,9.45.2,10.6.88,14.07,3.42,19.77-3.75,21.17-1.15.23-5.04.37-6.05-5.11-.56-3.05-.32-15.82.53-25.21.67-7.49,2.82-13.43,2.82-13.43Z"/>
            <path class="cls-5" d="M57.19,68.04c-4.01.49-5.88,2.12-5.67,3.45.32,2.05,4.48,5.77,8.42,4.89,3.94-.88,4.73-3.37,4.38-5.36-.14-.8-3.93-3.38-7.14-2.99Z"/>
            <g>
              <g>
                <path class="cls-8" d="M52.59,69.4c-.58-.88-1.65-2.91-.79-6.58,0,0,2.28-3.46,2.21-7.51,0,0,1.5-3.89,2.91-.84,0,0-.61,4.03-.84,4.87l.41-.16,3.26-4.49s2.42-6.08,4.31-6.65c0,0,.52-.25.66.42,0,0,1.42-.74,1.85.51l-.72,1.01s-1.14,2.78-1.17,4.08l.43,3.56s-1.52,3.75-2.64,5.38c0,0-.64,2.28-1.85,4.06l.04,2.57.18,2.95s-.98,1.11-3.14,1.6c-2.16.49-3.82-.05-3.82-.05l-1.31-4.74Z"/>
                <path class="cls-3" d="M63.66,59.1l-.37-2.08s-2.55-1.98-2.83-2.77c0,0-1.46.6-.97,1.78,0,0,.96,1.45,1.89,1.8,0,0-.07,1.56.22,1.88l-.59.77"/>
                <g>
                  <path class="cls-10" d="M62.09,53.25c-.15-.63-.93-2.69-.93-2.69-.11-1.57,1.4-1.32,1.4-1.32-.04.94,1.81,4.21,1.81,4.21l-1.84,2.74s-.31-2.4-.44-2.94Z"/>
                  <path class="cls-3" d="M64.62,53.75s-2-3.54-1.96-4.47c0,0-1.55-.23-1.44,1.34,0,0,.87,2.36.95,2.98.15,1.13.46,2.62.46,2.62"/>
                </g>
                <path class="cls-3" d="M54.41,66.27s2.04-3.24,1.76-4.97"/>
                <path class="cls-3" d="M64.66,48.55s-1.28,1.23-1.17,2.86"/>
              </g>
              <path class="cls-8" d="M61.81,69.07l.98,6.91s-6.03,6.73-9.8,0l-.8-6.17s4.86,3.06,8.04.67c.15-.11.5-1.67.64-1.8.15-.14.81.55.95.38Z"/>
            </g>
            <path class="cls-5" d="M54.24,96.97c-2.37-7.44-2.89-15.17-2.76-25.58,0,0,4.52,5.23,8.08,4.07,3.41-1.11,4.94-4.29,4.94-4.29,0,0,2.94,22.71,2.27,25.92,0,0-.33,4.28-6.46,4.43-2.48.06-5.09-1.5-6.06-4.55Z"/>
          </g>
        </g>
      </g>
      <circle class="cls-3" cx="36.64" cy="36.64" r="36.16"/>
    </g>
  </g>
</svg>