<svg width="577" height="234" viewBox="0 0 577 234" fill="none" xmlns="http://www.w3.org/2000/svg">
<path d="M36.348 97.276C38.948 93.22 42.536 89.944 47.112 87.448C51.688 84.952 57.044 83.704 63.18 83.704C70.356 83.704 76.856 85.524 82.68 89.164C88.504 92.804 93.08 98.004 96.408 104.764C99.84 111.524 101.556 119.376 101.556 128.32C101.556 137.264 99.84 145.168 96.408 152.032C93.08 158.792 88.504 164.044 82.68 167.788C76.856 171.428 70.356 173.248 63.18 173.248C57.148 173.248 51.792 172 47.112 169.504C42.536 167.008 38.948 163.784 36.348 159.832V213.496H9.672V84.952H36.348V97.276ZM74.412 128.32C74.412 121.664 72.54 116.464 68.796 112.72C65.156 108.872 60.632 106.948 55.224 106.948C49.92 106.948 45.396 108.872 41.652 112.72C38.012 116.568 36.192 121.82 36.192 128.476C36.192 135.132 38.012 140.384 41.652 144.232C45.396 148.08 49.92 150.004 55.224 150.004C60.528 150.004 65.052 148.08 68.796 144.232C72.54 140.28 74.412 134.976 74.412 128.32ZM142.227 56.56V172H115.551V56.56H142.227ZM247.515 84.952V172H220.839V160.144C218.135 163.992 214.443 167.112 209.763 169.504C205.187 171.792 200.091 172.936 194.475 172.936C187.819 172.936 181.943 171.48 176.847 168.568C171.751 165.552 167.799 161.236 164.991 155.62C162.183 150.004 160.779 143.4 160.779 135.808V84.952H187.299V132.22C187.299 138.044 188.807 142.568 191.823 145.792C194.839 149.016 198.895 150.628 203.991 150.628C209.191 150.628 213.299 149.016 216.315 145.792C219.331 142.568 220.839 138.044 220.839 132.22V84.952H247.515ZM299.748 83.704C305.884 83.704 311.24 84.952 315.816 87.448C320.496 89.944 324.084 93.22 326.58 97.276V84.952H353.256V171.844C353.256 179.852 351.644 187.08 348.42 193.528C345.3 200.08 340.464 205.28 333.912 209.128C327.464 212.976 319.404 214.9 309.732 214.9C296.836 214.9 286.384 211.832 278.376 205.696C270.368 199.664 265.792 191.448 264.648 181.048H291.012C291.844 184.376 293.82 186.976 296.94 188.848C300.06 190.824 303.908 191.812 308.484 191.812C313.996 191.812 318.364 190.2 321.588 186.976C324.916 183.856 326.58 178.812 326.58 171.844V159.52C323.98 163.576 320.392 166.904 315.816 169.504C311.24 172 305.884 173.248 299.748 173.248C292.572 173.248 286.072 171.428 280.248 167.788C274.424 164.044 269.796 158.792 266.364 152.032C263.036 145.168 261.372 137.264 261.372 128.32C261.372 119.376 263.036 111.524 266.364 104.764C269.796 98.004 274.424 92.804 280.248 89.164C286.072 85.524 292.572 83.704 299.748 83.704ZM326.58 128.476C326.58 121.82 324.708 116.568 320.964 112.72C317.324 108.872 312.852 106.948 307.548 106.948C302.244 106.948 297.72 108.872 293.976 112.72C290.336 116.464 288.516 121.664 288.516 128.32C288.516 134.976 290.336 140.28 293.976 144.232C297.72 148.08 302.244 150.004 307.548 150.004C312.852 150.004 317.324 148.08 320.964 144.232C324.708 140.384 326.58 135.132 326.58 128.476ZM367.251 128.32C367.251 119.376 368.915 111.524 372.243 104.764C375.675 98.004 380.303 92.804 386.127 89.164C391.951 85.524 398.451 83.704 405.627 83.704C411.347 83.704 416.547 84.9 421.227 87.292C426.011 89.684 429.755 92.908 432.459 96.964V56.56H459.135V172H432.459V159.52C429.963 163.68 426.375 167.008 421.695 169.504C417.119 172 411.763 173.248 405.627 173.248C398.451 173.248 391.951 171.428 386.127 167.788C380.303 164.044 375.675 158.792 372.243 152.032C368.915 145.168 367.251 137.264 367.251 128.32ZM432.459 128.476C432.459 121.82 430.587 116.568 426.843 112.72C423.203 108.872 418.731 106.948 413.427 106.948C408.123 106.948 403.599 108.872 399.855 112.72C396.215 116.464 394.395 121.664 394.395 128.32C394.395 134.976 396.215 140.28 399.855 144.232C403.599 148.08 408.123 150.004 413.427 150.004C418.731 150.004 423.203 148.08 426.843 144.232C430.587 140.384 432.459 135.132 432.459 128.476Z" fill="#031D5E"/>
<path d="M561.879 114.068C565.082 123.318 565.217 133.354 562.264 142.686C559.311 152.018 553.427 160.149 545.485 165.872C537.544 171.594 527.969 174.603 518.182 174.452C508.395 174.301 498.917 170.998 491.156 165.033C483.396 159.068 477.765 150.759 475.102 141.34C472.438 131.921 472.882 121.894 476.37 112.748C479.857 103.602 486.2 95.8243 494.459 90.5697C502.717 85.3151 512.45 82.8638 522.212 83.5797L520.589 105.717C515.589 105.35 510.604 106.605 506.374 109.297C502.145 111.988 498.896 115.971 497.11 120.656C495.324 125.34 495.096 130.476 496.46 135.3C497.824 140.124 500.708 144.379 504.683 147.434C508.658 150.489 513.512 152.181 518.525 152.259C523.537 152.336 528.441 150.795 532.509 147.864C536.576 144.933 539.589 140.768 541.102 135.989C542.615 131.209 542.545 126.069 540.905 121.332L561.879 114.068Z" fill="#031D5E"/>
<path d="M530.661 85.0089C542.289 88.1244 552.208 95.7207 558.246 106.134L539.046 117.268C535.953 111.934 530.872 108.043 524.917 106.447L530.661 85.0089Z" fill="#E96A8A"/>
<circle cx="556.317" cy="83.6416" r="9" transform="rotate(-1.30343 556.317 83.6416)" fill="#E96A8A"/>
<path d="M568.164 71.0603L564.88 85.4662L554.624 75.1782L568.164 71.0603Z" fill="#E96A8A"/>
</svg>
